Patient4_TMGait_0pt5_01_left_21_EMG.mot
version=1
nRows=33
nColumns=33
inDegrees=no
endheader
time	1LAddLong	2LGlutMax	3LGlutMed	4LIliopsoas	5LSemiMemb	6LBicFemLong	7LRecFem	8LVastMed	9LVastLat	10LGasMed	11LTibAnt	12lTibPost	13LPeroneusLong	14LSol	15LExtDigLong	16LFlexDigLong	17RAddLong	18RGlutMax	19RGlutMed	20RIliopsoas	21RSemiMemb	22RBicFemLong	23RRecFem	24RVastMed	25RVastLat	26RGasMed	27RTibAnt	28RTibPost	29RPeroneusLong	30RSol	31RExtDigLong	32RFlexDigLong
29.02	0.020294	-0.017242	-0.14984	0.002747	0.004425	-0.064545	-0.13199	0.007782	-0.05249	1.6235	0.010834	-0.003662	-0.022888	-0.23804	-0.042725	-0.15701	0.001526	0.002289	0.10819	-0.043793	0.10757	-0.24963	-0.056458	0.002594	-0.35034	-0.011139	0.020905	-0.011902	-0.072479	-0.039673	0.000763	-0.012665
29.021	0.009155	-0.008545	-0.10742	0.01297	0.019073	-0.12604	-0.16205	0.00473	-0.053558	1.2436	-0.000763	-0.004578	0.050049	-0.3894	-0.036926	0.32303	0.010834	0.000305	0.12543	-0.063324	0.071564	-0.20783	-0.10437	-0.022125	-0.41687	0.008698	0.004272	-0.010071	0.79865	0.002899	-0.001831	-0.001221
29.022	0.00824	-0.018005	-0.14603	0.001831	0.024109	-0.15671	-0.13565	0.010681	-0.06012	1.024	0.009155	0.010223	0.052795	-0.47958	-0.033722	0.41092	0.019379	-0.058289	-0.001678	-0.036774	0.069122	-0.064392	-0.1532	-0.035095	0.11231	0.018921	-0.011597	-0.010223	1.0416	0.005341	-0.000916	-0.007782
29.023	0.010071	-0.009003	-0.13534	0.019379	0.017395	-0.14664	-0.15884	0.009613	-0.065918	0.15472	0.007172	0.024109	0.044556	-0.44144	-0.042114	0.059967	0.031433	-0.10941	-0.07782	-0.015106	0.095978	-0.009766	-0.11978	0.16907	0.11719	0.021515	0.015564	-0.006256	0.42099	0.00351	-0.001068	-0.011292
29.024	0.020599	-0.029449	-0.11459	0.03006	-0.004425	-0.1355	-0.16113	0.002289	-0.065308	-0.85724	0.000305	0.040283	-0.004883	-0.31693	-0.058594	-0.24292	0.028381	-0.14557	-0.04364	-0.037231	0.20126	-0.033875	-0.17944	0.57938	-0.41092	0.007324	0.032043	0.000458	0.11505	0.027771	-0.000153	-0.012665
29.025	0.020447	-0.01236	-0.14832	0.025787	-0.033417	-0.054779	-0.1413	0.002594	-0.060577	-0.94879	0.009918	0.028992	0.002441	-0.28992	-0.055084	-0.48508	0.019379	-0.13412	0.082397	-0.020599	0.20538	-0.01297	-0.072327	0.45578	-0.65582	0.000305	0.04364	-0.00946	0.084686	0.009308	-0.00412	-0.011902
29.026	0.027313	0.045776	-0.076752	-0.000916	-0.012817	0.041351	-0.1619	0.002899	-0.061798	-0.85953	0.014038	-0.010376	0.017548	-0.26596	-0.032654	-0.24857	0.017853	-0.12238	0.32089	-0.002747	0.13992	0.02182	0.075073	0.27039	-0.83008	-0.005493	0.027618	-0.005646	0.067291	-0.022125	-0.00061	-0.010223
29.027	0.039978	0.054321	0.0383	-0.010834	0.083618	0.078583	-0.1387	0.006409	-0.067902	-0.53436	0.010529	0.024872	0.019073	-0.033569	-0.026398	-0.29556	-0.004272	-0.088196	0.4335	0.001526	0.072784	0.021057	-0.039368	0.011902	-0.81863	-0.004578	0.034637	-0.007172	0.063934	-0.04364	-0.001526	-0.011292
29.028	0.036163	0.049438	0.094147	-0.017548	0.07431	0.061493	-0.12833	0.009155	-0.064697	-0.40863	0.017395	-0.045319	-0.002136	0.13794	-0.019836	0.09964	-0.037537	-0.051117	0.3064	0.026245	0.050659	0.086975	-0.21072	-0.10727	-0.71991	-0.007324	0.024109	-0.000305	0.053406	-0.036011	-0.000153	-0.015106
29.029	0.034485	0.056305	0.064087	0.005798	0.028381	0.062714	-0.12405	0.006866	-0.065613	-0.30655	0.01297	-0.009613	0.000458	0.26657	-0.004883	0.50354	0.003052	-0.032043	0.30731	-0.004578	0.015106	0.22507	-0.16876	-0.29007	-0.77042	-0.023651	0.033264	-0.008392	0.021667	-0.023041	-0.001068	-0.002899
29.03	0.02655	0.030212	0.071106	0.018463	0.021973	0.075836	-0.13153	-0.00351	-0.059967	-0.27206	0.001984	0.022736	0.006104	0.25162	0.007324	0.017242	0.026245	-0.021667	0.21652	-0.007324	0.041962	0.354	-0.029144	-0.4155	-0.69214	-0.024109	0.023499	-0.008087	0.028687	-0.019531	-0.004883	0.000916
29.031	0.022583	0.039368	0.07782	0.020752	-0.010071	0.080566	-0.14114	0.005951	-0.061035	-0.23392	0.006866	-0.005798	0.009766	0.18921	0.018768	-0.01236	0.039063	-0.054932	0.11261	-0.044403	0.16434	0.26886	-0.000916	-0.57678	-0.45944	-0.027466	0.03006	-0.007629	0.023193	-0.028992	-0.00351	-0.002136
29.032	0.019684	0.055237	0.11047	0.010986	-0.011597	0.041504	-0.13779	0.011292	-0.055542	-0.20218	0.013428	-0.003662	-0.004883	0.22201	0.014954	-0.046844	0.076752	-0.1651	0.098267	-0.020599	0.21637	0.050812	0.016785	-0.62698	-0.55985	-0.027618	0.018768	-0.01236	0.055847	-0.035248	-0.001678	0.003357
29.033	0.018616	0.049133	0.1265	0.003662	-0.021973	0.060425	-0.15869	0.006714	-0.057678	-0.10712	0.016174	0.018768	-0.000763	0.24612	0.024567	-0.07431	0.053558	-0.19058	0.041809	0.051727	0.26062	-0.020905	0.045013	-0.29709	-0.69458	-0.00351	0.030823	-0.010681	0.14038	-0.030365	0.002747	0.000916
29.034	0.011749	0.071716	0.16937	0.002594	-0.022125	0.090179	-0.17929	0.001373	-0.043488	-0.057526	0.01358	0.030823	-0.024261	0.28473	0.029907	0.080261	0.024567	-0.085754	0.14114	0.053406	0.092621	-0.041809	-0.020142	-0.12558	-0.50262	0.032654	0.026855	0.011139	0.15259	-0.053558	-0.002136	0.002441
29.035	0.019836	0.072174	0.21439	0.006714	-0.041199	0.008087	-0.17563	0.005493	-0.035248	-0.039063	0.013123	-0.019531	-0.049896	0.31433	0.018616	-0.18021	0.032196	-0.026093	0.15182	0.052032	0.10101	-0.11749	-0.061951	-0.053253	-0.27512	0.031281	-0.014343	-0.000916	0.022125	-0.046539	-0.002747	-0.001678
29.036	0.029907	0.057983	0.21088	0.015411	-0.005035	-0.098572	-0.17807	0.001068	-0.034943	-0.021057	0.019379	-0.045929	-0.082397	0.23163	-0.000458	-0.076904	0.033112	0.067749	0.15213	0.07782	0.035248	-0.20737	-0.17166	0.085754	0.11475	0.019836	-0.014801	-0.00885	-0.090637	-0.052948	-0.003967	-0.011139
29.037	0.028839	0.083466	0.23575	0.006866	0.052185	-0.16968	-0.16113	0.001984	-0.057831	-0.034027	-0.005646	-0.005035	-0.088959	-0.002136	0.026855	0.033722	0.041656	0.14923	0.11398	-0.009613	0.21668	-0.22858	-0.1384	0.17517	0.75546	0.015564	0.01358	-0.006866	-0.10834	-0.057068	-0.005646	-0.015717
29.038	0.027161	0.074768	0.242	-0.014038	0.015411	-0.14999	-0.16281	0.002747	-0.064545	-0.070038	0.010223	0.001068	-0.090027	-0.16541	0.011597	0.1973	0.014343	0.11749	-0.021362	-0.019073	0.17502	-0.21805	-0.20538	0.18753	0.80749	0.007935	0.0383	-0.002136	-0.1506	-0.024414	-0.003052	-0.008698
29.039	0.030823	0.032349	0.26474	0.003967	0.015106	-0.010071	-0.15915	0.004272	-0.056	-0.1297	0.014343	-0.000763	0.054779	-0.066223	-0.004272	0.30716	-0.009155	0.17914	-0.056915	-0.00946	-0.021362	-0.18646	-0.054474	0.021362	0.41824	0.001068	0.057983	-0.001373	-0.18539	-0.027618	-0.003357	-0.010529
29.04	0.027771	0.040741	0.27908	0.005341	-0.005035	-0.037231	-0.16068	-0.003357	-0.065765	-0.10971	0.035706	-0.013885	0.1239	0.007935	0.058136	-0.2533	-0.021057	0.21774	-0.15488	-0.004578	-0.14786	-0.027161	-0.086823	-0.041504	-0.047607	0.001831	0.067139	-0.002136	-0.17563	-0.042419	-0.004883	-0.014038
29.041	0.020905	0.069885	0.28519	0.02533	-0.002441	-0.041504	-0.16052	-0.001678	-0.063171	0.005035	0.015717	-0.006866	0.072174	0.037079	-0.004425	-0.56091	-0.019684	0.24704	-0.16632	0.03479	-0.21179	0.021515	-0.14099	-0.11581	-0.27802	0.001526	0.056152	-0.001678	-0.052032	-0.039063	-0.000763	-0.01236
29.042	0.021362	0.13168	0.3067	0.008698	-0.005951	-0.004578	-0.14557	0.004425	-0.055389	0.16571	0.007477	0.001678	0.079346	-0.010376	-0.032349	-0.24643	0.03006	0.18982	-0.085907	0.061798	-0.23605	0.002289	-0.029449	-0.059662	-0.28946	0.000763	0.043335	-0.001373	-0.048676	-0.033112	-0.001831	-0.015259
29.043	0.012207	0.005341	0.32227	0.006866	-0.005341	0.046997	-0.16007	0.007629	-0.060577	0.18936	0.00885	0.011139	0.078125	-0.15259	-0.035095	-0.48691	0.051727	0.09903	0.009003	0.055695	-0.17502	0.053711	0.11154	-0.01358	-0.22507	0.000458	0.021973	-0.003967	-0.090942	-0.036316	0.001678	-0.013428
29.044	0.019226	0.008087	0.36941	0.000763	-0.034485	0.059509	-0.14236	0.011292	-0.041504	0.15976	-0.006409	0.009918	0.076904	-0.29892	-0.032196	0.68237	-0.049286	0.09613	-0.076294	0.003662	-0.072937	0.1915	0.093384	0	-0.1976	0	0.032196	-0.010376	-0.22247	-0.033875	-0.002136	-0.013275
29.045	0.00885	0.05188	0.37079	0.006409	-0.054016	0.051575	-0.15945	0.009613	-0.033112	0.086975	-0.024567	0.011444	0.069275	-0.3122	-0.023346	0.36682	-0.05127	0.17716	-0.27588	-0.031433	-0.026093	0.22476	0.086365	0.15717	0.023041	-0.001068	0.023804	-0.000916	-0.11627	-0.016174	-0.00061	-0.011902
29.046	0.019226	0.041962	0.37842	0.007019	-0.022888	0.031281	-0.14358	-0.005798	-0.031433	0.000763	-0.038452	0.005646	0.061493	-0.18616	0.005646	-0.062256	0.004272	0.18753	-0.39322	-0.010376	0.2179	0.17731	0.13031	0.12909	0.13306	-0.000458	0.02533	0.001526	0.033264	-0.034027	-0.00351	-0.010071
29.047	0.018311	0.065613	0.40588	-0.011444	0.043488	-0.080719	-0.13565	-0.002136	-0.036469	-0.19089	-0.02655	-0.018463	0.066071	-0.031128	0.016022	-0.012665	0.050659	0.21866	-0.30563	-0.028381	0.1326	0.18234	0.18143	0.11185	0.025635	0.000153	0.02594	-0.001526	0.010529	-0.033722	-0.003357	-0.007782
29.048	0.029449	0.042267	0.42191	0.010681	0.023956	-0.16556	-0.10574	-0.004272	-0.030212	-0.24551	-0.017548	-0.015564	0.018768	-0.007935	0.006409	0.065002	0.030975	0.1265	-0.078278	-0.023041	0.002899	0.22934	0.15884	0.28275	-0.048218	0	0.02182	0.000305	-0.073242	-0.041809	-0.00351	-0.007629
29.049	0.031586	0.016479	0.41443	0.007324	0.009155	-0.12177	-0.10284	0.002747	-0.034943	-0.35568	-0.005035	0.003967	-0.022888	-0.066223	0.005188	0.12756	-0.029297	0.11337	0.1236	-0.032654	-0.17838	0.23575	0.22537	0.29846	-0.050354	0.00061	0.032806	-0.002594	-0.066681	-0.07309	-0.002441	-0.00473
29.05	0.021362	0.05249	0.41275	-0.008698	0.055542	-0.14496	-0.098114	0.004883	-0.043945	-0.38345	0.003052	-0.006866	-0.065155	-0.16815	0.007477	0.090637	-0.075378	-0.020294	-0.20126	-0.014648	-0.24551	0.25848	0.17227	0.37521	-0.004425	0.001831	0.022278	0.000153	0.36652	-0.055695	0.005035	-0.001831
29.051	0.008392	0.028687	0.43259	0.002747	0.040741	-0.11734	-0.064545	0.004578	-0.046997	-0.28351	0.010681	-0.00824	-0.11383	-0.10056	0.035858	0.055237	-0.092163	-0.18112	-0.070343	-0.045929	-0.06546	0.23025	0.1474	0.38315	-0.019531	0.000153	0.029144	0.002136	0.27512	-0.028381	-0.002594	-0.008392
29.052	0.011444	0.037384	0.47897	0.007477	0.010681	-0.067291	-0.074158	0.006256	-0.043488	-0.26199	0.023956	-0.005188	-0.094147	0.014496	0.046692	-0.17624	-0.062103	-0.26276	-0.00885	0.001373	0.39322	0.096283	0.071564	0.33463	0.039825	-0.00412	0.037384	0.004272	0.063934	-0.057678	-0.002899	-0.005493
